<?xml version="1.0" encoding="iso-8859-1"?>
<!-- Generator: Adobe Illustrator 19.0.0, SVG Export Plug-In . SVG Version: 6.00 Build 0)  -->
<svg version="1.1" id="Capa_1" xmlns="http://www.w3.org/2000/svg" xmlns:xlink="http://www.w3.org/1999/xlink" x="0px" y="0px"
	 viewBox="0 0 480.007 480.007" style="enable-background:new 0 0 480.007 480.007; fill: #767676; " xml:space="preserve">
<g>
	<g>
		<path d="M472.388,16.392c-7.491-10.298-19.457-16.391-32.191-16.391c-12.73,0.022-24.686,6.111-32.192,16.392l-45.6,62.696
			l-26.4-26.4L52.693,336.001l26.4,26.4l-62.696,45.6c-17.781,12.931-21.712,37.828-8.781,55.608
			c12.931,17.781,37.828,21.712,55.608,8.781c3.368-2.45,6.331-5.413,8.781-8.781l45.6-62.696l26.4,26.4l283.312-283.312l-26.4-26.4
			l62.696-45.6C481.392,59.068,485.321,34.171,472.388,16.392z M59.061,454.193c-7.734,10.628-22.62,12.974-33.248,5.239
			c-10.628-7.734-12.974-22.62-5.239-33.248c1.462-2.009,3.23-3.777,5.239-5.239l64.736-47.088l15.6,15.6L59.061,454.193z
			 M404.693,144.001l-12.688,12.688l-58.344-58.344l-11.312,11.312l58.344,58.344L168.005,380.689l-58.344-58.344l-11.312,11.312
			l58.344,58.344l-12.688,12.688l-68.688-68.688L336.005,75.313L404.693,144.001z M459.437,53.85
			c-1.462,2.009-3.23,3.777-5.239,5.239l-64.736,47.088l-15.6-15.6l47.088-64.736c7.734-10.628,22.62-12.974,33.248-5.239
			S467.171,43.222,459.437,53.85z"/>
	</g>
</g>
<g>
</g>
<g>
</g>
<g>
</g>
<g>
</g>
<g>
</g>
<g>
</g>
<g>
</g>
<g>
</g>
<g>
</g>
<g>
</g>
<g>
</g>
<g>
</g>
<g>
</g>
<g>
</g>
<g>
</g>
</svg>
